<svg version="1.1" viewBox="0 0 165.31 209.14" xmlns="http://www.w3.org/2000/svg" xmlns:xlink="http://www.w3.org/1999/xlink" id="Layer_6" overflow="hidden"><defs></defs><path d=" M 99.34 56.64 C 109.15 58.39 115.32 63.88 117.92 73.44 C 123.18 73.08 128.13 74 132.56 77.11 C 136.98 80.22 139.73 84.44 141.11 89.4 C 143.95 89.7 146.72 89.67 149.32 90.32 C 162.19 93.52 168.9 107.52 163.34 119.57 C 156.77 133.79 150.12 147.97 143.39 162.12 C 137.28 174.98 127.47 183.99 114.36 189.5 C 113.33 189.93 112.27 190.88 111.77 191.86 C 103.97 207.21 86.41 213.38 70.81 206.12 C 56.12 199.27 41.44 192.39 26.78 185.47 C 12.92 178.93 6.22 165.09 9.48 150.1 C 9.68 149.17 9.46 147.93 8.98 147.11 C -1.56 129.37 -2.84 110.95 5.16 91.99 C 7.92 85.44 10.71 78.76 14.53 72.82 C 22.72 60.07 34.85 55.04 49.83 57.13 C 51.74 57.4 52.53 56.99 53.33 55.26 C 60.01 40.83 66.7 26.41 73.57 12.08 C 78.86 1.03 91.91 -3.13 102.67 2.59 C 112.48 7.8 116.42 19.79 111.65 30.35 C 108.03 38.34 104.23 46.24 100.5 54.19 C 100.14 54.96 99.78 55.72 99.33 56.68 Z M 45.84 71.11 C 45.57 70.9 45.46 70.75 45.32 70.73 C 44.86 70.66 44.39 70.6 43.92 70.61 C 36.91 70.8 30.84 73.36 27.12 79.32 C 23.74 84.73 21.13 90.66 18.54 96.52 C 11.45 112.55 12.8 127.92 22.87 142.35 C 24.9 145.26 25.36 147.99 23.97 151.34 C 20.63 159.34 24.1 168.54 31.9 172.26 C 47.03 179.47 62.21 186.57 77.42 193.61 C 84.1 196.7 91.92 194.92 96.59 189.26 C 98.06 187.48 99.19 185.34 100.12 183.21 C 101.49 180.04 103.61 178.14 106.97 177.05 C 117.01 173.79 124.89 167.5 129.58 158.08 C 136.88 143.44 143.62 128.51 150.53 113.68 C 152.18 110.15 150.68 106.15 147.32 104.46 C 143.92 102.75 139.74 104.11 137.87 107.59 C 137.17 108.9 136.6 110.28 135.95 111.62 C 134.03 115.57 130.08 117.13 126.4 115.4 C 122.75 113.68 121.41 109.62 123.2 105.62 C 124.45 102.83 125.85 100.11 127.02 97.29 C 128.54 93.63 126.86 89.54 123.36 88.03 C 119.91 86.54 115.99 88.01 114.22 91.48 C 113.58 92.74 113.03 94.04 112.41 95.3 C 110.49 99.22 106.48 100.82 102.84 99.13 C 99.18 97.43 97.83 93.35 99.63 89.36 C 100.92 86.51 102.34 83.71 103.55 80.82 C 105.16 76.99 103.55 72.89 99.97 71.34 C 96.42 69.81 92.57 71.34 90.74 75.02 C 90.01 76.49 89.39 78.02 88.62 79.47 C 87.22 82.11 85.01 83.58 81.99 83.53 C 76.77 83.44 73.72 78.16 76.04 73.17 C 83.39 57.41 90.79 41.68 98.17 25.94 C 98.54 25.16 98.94 24.39 99.21 23.58 C 100.31 20.23 99.02 16.71 96.1 15.03 C 93.26 13.38 89.52 13.97 87.35 16.53 C 86.61 17.41 86.1 18.51 85.6 19.56 C 73.15 46.07 60.72 72.59 48.28 99.11 C 47.91 99.89 47.59 100.69 47.15 101.43 C 45.13 104.88 40.98 106.15 37.62 104.36 C 34.28 102.59 32.96 98.69 34.62 95.07 C 37.96 87.81 41.38 80.6 44.77 73.36 C 45.13 72.6 45.49 71.83 45.83 71.1 Z" fill="#808080"/><path d=" M 45.84 71.11 C 45.5 71.84 45.14 72.6 44.78 73.37 C 41.39 80.6 37.97 87.82 34.63 95.08 C 32.97 98.7 34.29 102.6 37.63 104.37 C 40.99 106.15 45.14 104.89 47.16 101.44 C 47.59 100.7 47.92 99.9 48.29 99.12 C 60.73 72.6 73.16 46.08 85.61 19.57 C 86.11 18.52 86.61 17.41 87.36 16.54 C 89.53 13.98 93.27 13.4 96.11 15.04 C 99.02 16.73 100.32 20.25 99.22 23.59 C 98.95 24.4 98.55 25.17 98.18 25.95 C 90.8 41.69 83.4 57.42 76.05 73.18 C 73.72 78.17 76.77 83.44 82 83.54 C 85.02 83.59 87.23 82.12 88.63 79.48 C 89.4 78.03 90.02 76.5 90.75 75.03 C 92.58 71.34 96.43 69.82 99.98 71.35 C 103.56 72.9 105.17 77 103.56 80.83 C 102.35 83.72 100.93 86.52 99.64 89.37 C 97.84 93.36 99.19 97.44 102.85 99.14 C 106.49 100.83 110.5 99.23 112.42 95.31 C 113.04 94.04 113.59 92.74 114.23 91.49 C 116 88.01 119.92 86.55 123.37 88.04 C 126.87 89.55 128.55 93.64 127.03 97.3 C 125.86 100.12 124.46 102.84 123.21 105.63 C 121.41 109.64 122.76 113.7 126.41 115.41 C 130.09 117.14 134.04 115.58 135.96 111.63 C 136.61 110.29 137.18 108.91 137.88 107.6 C 139.75 104.12 143.93 102.75 147.33 104.47 C 150.69 106.16 152.18 110.16 150.54 113.69 C 143.63 128.53 136.89 143.45 129.59 158.09 C 124.89 167.51 117.02 173.8 106.98 177.06 C 103.62 178.15 101.51 180.05 100.13 183.22 C 99.21 185.35 98.07 187.49 96.6 189.27 C 91.93 194.93 84.11 196.71 77.43 193.62 C 62.22 186.58 47.04 179.48 31.91 172.27 C 24.11 168.55 20.64 159.35 23.98 151.35 C 25.37 148.01 24.92 145.28 22.88 142.36 C 12.81 127.93 11.46 112.57 18.55 96.53 C 21.14 90.67 23.75 84.74 27.13 79.33 C 30.85 73.37 36.92 70.81 43.93 70.62 C 44.39 70.61 44.86 70.67 45.33 70.74 C 45.46 70.76 45.57 70.91 45.85 71.12 Z" fill="#FFFFFF"/></svg>